# xmcd
#
# Track frame offsets:
#	150
#	13725
#	27056
#	40746
#	53289
#	64797
#	77864
#	92560
#	104820
#	117563
#	130960
#	144061
#	156424
#	168229
#	180140
#	193312
#	205881
#	218684
#	230214
#	244848
#	259121
#	271898
#
# Disc length: 3782 seconds
#
# Revision: 3
# Processed by: cddbd v1.5.2PL0 Copyright (c) Steve Scherf et al.
# Submitted via: MusicWizard 7.2.0
#
DISCID=320ec416
DTITLE=Various Artist - Original Soul Sisters - Singing In My Soul
DYEAR=2005
DGENRE=Soul
TTITLE0=Sister Rosetta Tharpe - Singing In My Soul
TTITLE1=Julia Lee - If It's Good
TTITLE2=Nellie Lutcher - He's A Real Gone Guy
TTITLE3=Myra Taylor - Booted
TTITLE4=Sister Rosetta Tharpe and Marie Knight - Up Above My Head
TTITLE5=Julia Lee - Snatch And Grab It
TTITLE6=Dinah Washington - Long John Blues
TTITLE7=Devonia 'Lady Dee' Williams - I'm Not Falling In Love With You
TTITLE8=Sister Wynona Carr - Each Day
TTITLE9=Alma 'Miss Lollipop' Mondy - Miss Lollipop's Confession
TTITLE10=Mahalia Jackson - I'm Glad Salvation Is Free
TTITLE11=LaVern Baker - I Want To Rock
TTITLE12=Little Esther Phillips - Cupid's Boogie
TTITLE13=Dinah Washington - New Blowtop Blues
TTITLE14=Ruth Brown - (Mama) He Treats Your Daughter Mean
TTITLE15=Big Mama Thornton - Hound Dog
TTITLE16=Faye Adams - Every Day
TTITLE17=Ruth Brown - Wild Wild Young Men
TTITLE18=Big Maybelle - Just Want Your Love
TTITLE19=Ella Johnson - Hittin' On Me
TTITLE20=Faye Adams - I'll Be True
TTITLE21=Big Maybelle - My Country Man
EXTD=
EXTT0=
EXTT1=
EXTT2=
EXTT3=
EXTT4=
EXTT5=
EXTT6=
EXTT7=
EXTT8=
EXTT9=
EXTT10=
EXTT11=
EXTT12=
EXTT13=
EXTT14=
EXTT15=
EXTT16=
EXTT17=
EXTT18=
EXTT19=
EXTT20=
EXTT21=
PLAYORDER=
